<svg width="27" height="49" viewBox="0 0 27 49" fill="none" xmlns="http://www.w3.org/2000/svg">
<path d="M14.385 21.2937C8.42625 19.7081 6.51 18.0687 6.51 15.5156C6.51 12.5862 9.16125 10.5437 13.5975 10.5437C18.27 10.5437 20.0025 12.8281 20.16 16.1875H25.9612C25.7775 11.565 23.0212 7.31875 17.535 5.94812V0.0625H9.66V5.8675C4.5675 6.99625 0.472499 10.3825 0.472499 15.5694C0.472499 21.7775 5.48625 24.8681 12.81 26.6687C19.3725 28.2812 20.685 30.6462 20.685 33.1456C20.685 35 19.3987 37.9562 13.5975 37.9562C8.19 37.9562 6.06375 35.4837 5.775 32.3125H0C0.315 38.1981 4.62 41.5037 9.66 42.6056V48.4375H17.535V42.6594C22.6537 41.665 26.7225 38.6281 26.7225 33.1187C26.7225 25.4862 20.3437 22.8794 14.385 21.2937Z" fill="#00D563"/>
</svg>
