<svg width="60" height="54" viewBox="0 0 60 54" fill="none" xmlns="http://www.w3.org/2000/svg">
<path d="M11.3334 22.0001V54.0001H0.666687V22.0001H11.3334ZM22 54.0001C20.5855 54.0001 19.229 53.4382 18.2288 52.438C17.2286 51.4378 16.6667 50.0812 16.6667 48.6667V22.0001C16.6667 20.5334 17.2534 19.2001 18.24 18.2401L35.7867 0.666748L38.6133 3.49341C39.3334 4.21341 39.7867 5.20008 39.7867 6.29341L39.7067 7.14675L37.1734 19.3334H54C55.4145 19.3334 56.7711 19.8953 57.7713 20.8955C58.7714 21.8957 59.3334 23.2523 59.3334 24.6667V30.0001C59.3334 30.6934 59.2 31.3334 58.96 31.9467L50.9067 50.7467C50.1067 52.6667 48.2134 54.0001 46 54.0001H22ZM22 48.6667H46.08L54 30.0001V24.6667H30.56L33.5734 10.4801L22 22.0801V48.6667Z" fill="#569AFF"/>
</svg>
