<svg width="48" height="60" viewBox="0 0 48 60" fill="none" xmlns="http://www.w3.org/2000/svg">
<path d="M24 0.666748L0 11.3334V27.3334C0 42.1334 10.24 55.9734 24 59.3334C37.76 55.9734 48 42.1334 48 27.3334V11.3334L24 0.666748ZM24 16.6667C27.7333 16.6667 31.4667 19.6001 31.4667 23.3334V27.3334C33.0667 27.3334 34.6667 28.9334 34.6667 30.8001V40.1334C34.6667 41.7334 33.0667 43.3334 31.2 43.3334H16.5333C14.9333 43.3334 13.3333 41.7334 13.3333 39.8667V30.5334C13.3333 28.9334 14.9333 27.3334 16.5333 27.3334V23.3334C16.5333 19.6001 20.2667 16.6667 24 16.6667ZM24 19.8667C21.8667 19.8667 20 21.2001 20 23.3334V27.3334H28V23.3334C28 21.2001 26.1333 19.8667 24 19.8667Z" fill="#DEE200"/>
</svg>
